<svg width="20" height="26" viewBox="0 0 20 26" fill="none" xmlns="http://www.w3.org/2000/svg">
<path d="M18.9419 8.39024L10.9438 0.39224C10.9372 0.385573 10.9298 0.378906 10.9238 0.372239H10.9232C10.8005 0.254239 10.6612 0.16424 10.5132 0.102906C10.1965 -0.0290938 9.80252 -0.0290938 9.48585 0.102906C9.33785 0.164906 9.19785 0.254906 9.07518 0.372239C9.06852 0.378906 9.06118 0.385573 9.05452 0.39224L1.05652 8.39024C0.535849 8.91091 0.535849 9.75491 1.05652 10.2756C1.57652 10.7962 2.42185 10.7962 2.94185 10.2756L8.66585 4.55224V23.9996C8.66585 24.7356 9.26318 25.3329 9.99918 25.3329C10.7352 25.3329 11.3325 24.7356 11.3325 23.9996V4.55224L17.0565 10.2756C17.5772 10.7962 18.4212 10.7962 18.9419 10.2756C19.4625 9.75491 19.4625 8.91091 18.9419 8.39024Z" fill="#ACACAC"/>
</svg>
