<svg width="128" height="14" viewBox="0 0 128 14" fill="none" xmlns="http://www.w3.org/2000/svg">
<path d="M7.479 0.216797C8.35335 0.216797 9.19173 0.391113 9.99414 0.739746C10.8021 1.08838 11.4993 1.55322 12.0859 2.13428C12.6781 2.71533 13.1484 3.40983 13.4971 4.21777C13.8512 5.02018 14.0283 5.85579 14.0283 6.72461C14.0283 7.59896 13.8512 8.43734 13.4971 9.23975C13.1484 10.0422 12.6753 10.7339 12.0776 11.3149C11.4855 11.896 10.7799 12.3608 9.96094 12.7095C9.14193 13.0526 8.28695 13.2241 7.396 13.2241C6.50505 13.2241 5.6473 13.0526 4.82275 12.7095C4.00374 12.3608 3.29541 11.896 2.69775 11.3149C2.10563 10.7284 1.63249 10.0366 1.27832 9.23975C0.924154 8.43734 0.74707 7.59896 0.74707 6.72461C0.74707 5.53483 1.0459 4.44189 1.64355 3.4458C2.24121 2.44971 3.05469 1.6639 4.08398 1.08838C5.11882 0.507324 6.25049 0.216797 7.479 0.216797ZM7.32959 1.37061C6.38883 1.37061 5.50895 1.6141 4.68994 2.10107C3.87646 2.58805 3.229 3.24382 2.74756 4.06836C2.26611 4.8929 2.02539 5.77832 2.02539 6.72461C2.02539 7.68197 2.26611 8.57292 2.74756 9.39746C3.23454 10.2165 3.8903 10.8667 4.71484 11.3481C5.53939 11.8241 6.43311 12.062 7.396 12.062C8.1154 12.062 8.80436 11.9209 9.46289 11.6387C10.1214 11.3509 10.6914 10.9691 11.1729 10.4932C11.6543 10.0173 12.0361 9.4528 12.3184 8.7998C12.6061 8.14128 12.75 7.45508 12.75 6.74121C12.75 6.01074 12.6061 5.31348 12.3184 4.64941C12.0361 3.98535 11.6515 3.41536 11.1646 2.93945C10.6831 2.45801 10.1076 2.07617 9.43799 1.79395C8.76839 1.51172 8.06559 1.37061 7.32959 1.37061ZM24.3329 13C24.3329 13 23.8902 13 23.0048 13C23.0048 13 21.8842 10.377 19.643 5.13086C19.643 5.13086 18.5141 7.75391 16.2563 13C16.2563 13 15.8135 13 14.9281 13C14.9281 13 16.2618 9.90104 18.9291 3.70312C18.9291 3.70312 19.3995 3.70312 20.3402 3.70312C20.3402 3.70312 21.6711 6.80208 24.3329 13ZM27.6067 8.55908C27.6067 8.55908 27.6067 9.66032 27.6067 11.8628C27.6067 11.8628 28.4091 11.8628 30.014 11.8628C31.5136 11.8628 32.2635 11.3122 32.2635 10.2109C32.2635 9.1097 31.5136 8.55908 30.014 8.55908H27.6067ZM30.3377 7.42188C31.3006 7.42188 32.0726 7.68473 32.6536 8.21045C33.2402 8.73063 33.5335 9.39746 33.5335 10.2109C33.5335 11.0244 33.2402 11.694 32.6536 12.2197C32.0726 12.7399 31.3006 13 30.3377 13H26.345V3.70312H27.6067V7.42188H30.3377ZM40.6008 3.70312C40.6008 3.70312 40.6008 4.08219 40.6008 4.84033C40.6008 4.84033 39.4359 4.84033 37.1062 4.84033C37.1062 4.84033 37.1062 7.56022 37.1062 13C37.1062 13 36.6856 13 35.8444 13C35.8444 13 35.8444 9.90104 35.8444 3.70312C35.8444 3.70312 37.4299 3.70312 40.6008 3.70312ZM51.6275 3.70312C51.6275 3.70312 51.6275 6.80208 51.6275 13C51.6275 13 51.207 13 50.3658 13C50.3658 13 50.3658 12.4549 50.3658 11.3647C49.8733 12.0288 49.3504 12.5047 48.797 12.7925C48.2491 13.0802 47.5823 13.2241 46.7965 13.2241C45.8502 13.2241 44.9952 13.0166 44.2315 12.6016C43.4734 12.181 42.8785 11.6027 42.4469 10.8667C42.0152 10.1252 41.7994 9.29508 41.7994 8.37646C41.7994 7.45785 42.0125 6.625 42.4386 5.87793C42.8647 5.13086 43.4513 4.54427 44.1983 4.11816C44.9454 3.69206 45.7783 3.479 46.6969 3.479C47.5104 3.479 48.2076 3.62842 48.7887 3.92725C49.3753 4.22054 49.901 4.69368 50.3658 5.34668V3.70312H51.6275ZM46.6803 4.63281C45.6842 4.63281 44.8347 4.99251 44.1319 5.71191C43.4291 6.43132 43.0777 7.3029 43.0777 8.32666C43.0777 9.37256 43.4374 10.258 44.1568 10.9829C44.8762 11.7023 45.7506 12.062 46.7799 12.062C47.7926 12.062 48.642 11.7051 49.3282 10.9912C50.02 10.2718 50.3658 9.38363 50.3658 8.32666C50.3658 7.26969 50.0144 6.38981 49.3116 5.68701C48.6088 4.98421 47.7317 4.63281 46.6803 4.63281ZM70.1366 13C70.1366 13 68.5567 9.28955 65.3969 1.86865C65.3969 1.86865 63.8142 5.5791 60.6488 13C60.6488 13 60.1978 13 59.2958 13C59.2958 13 61.0971 8.81364 64.6996 0.440918C64.6996 0.440918 65.1645 0.440918 66.0941 0.440918C66.0941 0.440918 67.8954 4.62728 71.4979 13C71.4979 13 71.0442 13 70.1366 13ZM82.5745 8.7666C82.5745 8.7666 79.7716 8.7666 74.1658 8.7666C74.2156 9.68522 74.5919 10.4655 75.2947 11.1074C75.9975 11.7438 76.8276 12.062 77.785 12.062C78.4933 12.062 79.1463 11.8683 79.7439 11.481C80.3416 11.0881 80.7705 10.5734 81.0306 9.93701H82.3421C81.999 10.9165 81.4124 11.7106 80.5823 12.3193C79.7522 12.9225 78.8309 13.2241 77.8182 13.2241C77.143 13.2241 76.5011 13.0968 75.8924 12.8423C75.2837 12.5877 74.7607 12.2419 74.3235 11.8047C73.8864 11.3675 73.5405 10.8446 73.2859 10.2358C73.0314 9.62712 72.9041 8.98519 72.9041 8.31006C72.9041 7.42464 73.1172 6.61117 73.5433 5.86963C73.9694 5.12809 74.5504 4.54427 75.2864 4.11816C76.0224 3.69206 76.8331 3.479 77.7186 3.479C78.6372 3.479 79.4811 3.70589 80.2503 4.15967C81.025 4.61344 81.6144 5.23047 82.0184 6.01074C82.2231 6.40365 82.367 6.80762 82.45 7.22266C82.533 7.63216 82.5745 8.14681 82.5745 8.7666ZM74.199 7.62939H81.3211C81.1108 6.70524 80.6819 5.97477 80.0345 5.43799C79.3925 4.9012 78.6206 4.63281 77.7186 4.63281C76.8387 4.63281 76.075 4.90951 75.4275 5.46289C74.7801 6.01074 74.3706 6.73291 74.199 7.62939ZM93.2609 13C93.2609 13 92.8404 13 91.9992 13C91.9992 13 91.9992 11.611 91.9992 8.83301C91.9992 8.83301 90.1426 8.83301 86.4294 8.83301C86.4294 8.83301 86.4294 10.222 86.4294 13C86.4294 13 86.0088 13 85.1677 13C85.1677 13 85.1677 9.90104 85.1677 3.70312C85.1677 3.70312 85.5883 3.70312 86.4294 3.70312C86.4294 3.70312 86.4294 5.03402 86.4294 7.6958C86.4294 7.6958 88.286 7.6958 91.9992 7.6958C91.9992 7.6958 91.9992 6.36491 91.9992 3.70312C91.9992 3.70312 92.4198 3.70312 93.2609 3.70312C93.2609 3.70312 93.2609 6.80208 93.2609 13ZM105.558 8.7666C105.558 8.7666 102.755 8.7666 97.149 8.7666C97.1988 9.68522 97.5751 10.4655 98.2779 11.1074C98.9807 11.7438 99.8108 12.062 100.768 12.062C101.476 12.062 102.129 11.8683 102.727 11.481C103.325 11.0881 103.754 10.5734 104.014 9.93701H105.325C104.982 10.9165 104.396 11.7106 103.566 12.3193C102.735 12.9225 101.814 13.2241 100.801 13.2241C100.126 13.2241 99.4843 13.0968 98.8756 12.8423C98.2669 12.5877 97.7439 12.2419 97.3067 11.8047C96.8696 11.3675 96.5237 10.8446 96.2691 10.2358C96.0146 9.62712 95.8873 8.98519 95.8873 8.31006C95.8873 7.42464 96.1004 6.61117 96.5265 5.86963C96.9526 5.12809 97.5336 4.54427 98.2696 4.11816C99.0056 3.69206 99.8163 3.479 100.702 3.479C101.62 3.479 102.464 3.70589 103.233 4.15967C104.008 4.61344 104.598 5.23047 105.002 6.01074C105.206 6.40365 105.35 6.80762 105.433 7.22266C105.516 7.63216 105.558 8.14681 105.558 8.7666ZM97.1822 7.62939H104.304C104.094 6.70524 103.665 5.97477 103.018 5.43799C102.376 4.9012 101.604 4.63281 100.702 4.63281C99.8219 4.63281 99.0582 4.90951 98.4107 5.46289C97.7633 6.01074 97.3538 6.73291 97.1822 7.62939ZM98.9005 0.266602H100.154V2.4082H98.9005V0.266602ZM101.399 0.266602H102.652V2.4082H101.399V0.266602ZM109.413 8.68359C109.413 8.68359 109.413 9.74333 109.413 11.8628C109.413 11.8628 110.209 11.8628 111.803 11.8628C112.29 11.8628 112.714 11.8102 113.073 11.7051C113.433 11.5999 113.723 11.4229 113.945 11.1738C114.172 10.9248 114.285 10.6094 114.285 10.2275C114.285 9.19824 113.458 8.68359 111.803 8.68359H109.413ZM115.09 6.15186C115.09 6.6001 114.955 6.98747 114.684 7.31396C114.418 7.64046 114.133 7.87012 113.829 8.00293C114.985 8.4235 115.563 9.16504 115.563 10.2275C115.563 11.0244 115.243 11.6857 114.601 12.2114C113.964 12.7371 113.14 13 112.127 13H108.151V3.70312H111.878C112.874 3.70312 113.657 3.91895 114.227 4.35059C114.803 4.77669 115.09 5.37712 115.09 6.15186ZM113.878 6.15186C113.878 5.27751 113.142 4.84033 111.67 4.84033H109.413C109.413 4.84033 109.413 5.74235 109.413 7.54639C109.413 7.54639 110.165 7.54639 111.67 7.54639C112.351 7.54639 112.888 7.43018 113.281 7.19775C113.679 6.96533 113.878 6.6167 113.878 6.15186ZM127.57 3.70312C127.57 3.70312 127.57 6.80208 127.57 13C127.57 13 127.149 13 126.308 13C126.308 13 126.308 12.4549 126.308 11.3647C125.815 12.0288 125.293 12.5047 124.739 12.7925C124.191 13.0802 123.524 13.2241 122.739 13.2241C121.792 13.2241 120.937 13.0166 120.174 12.6016C119.416 12.181 118.821 11.6027 118.389 10.8667C117.957 10.1252 117.742 9.29508 117.742 8.37646C117.742 7.45785 117.955 6.625 118.381 5.87793C118.807 5.13086 119.393 4.54427 120.141 4.11816C120.888 3.69206 121.72 3.479 122.639 3.479C123.453 3.479 124.15 3.62842 124.731 3.92725C125.317 4.22054 125.843 4.69368 126.308 5.34668V3.70312H127.57ZM122.622 4.63281C121.626 4.63281 120.777 4.99251 120.074 5.71191C119.371 6.43132 119.02 7.3029 119.02 8.32666C119.02 9.37256 119.38 10.258 120.099 10.9829C120.818 11.7023 121.693 12.062 122.722 12.062C123.735 12.062 124.584 11.7051 125.27 10.9912C125.962 10.2718 126.308 9.38363 126.308 8.32666C126.308 7.26969 125.957 6.38981 125.254 5.68701C124.551 4.98421 123.674 4.63281 122.622 4.63281Z" fill="#262626"/>
</svg>
