<svg width="172" height="19" viewBox="0 0 172 19" fill="none" xmlns="http://www.w3.org/2000/svg">
<path d="M9.11865 0.705078C10.3016 0.705078 11.4359 0.940918 12.5215 1.4126C13.6146 1.88428 14.5579 2.51318 15.3516 3.29932C16.1527 4.08545 16.7891 5.02507 17.2607 6.11816C17.7399 7.20378 17.9795 8.33431 17.9795 9.50977C17.9795 10.6927 17.7399 11.827 17.2607 12.9126C16.7891 13.9982 16.1489 14.9341 15.3403 15.7202C14.5392 16.5063 13.5846 17.1353 12.4766 17.6069C11.3685 18.0711 10.2118 18.3032 9.00635 18.3032C7.80094 18.3032 6.64046 18.0711 5.5249 17.6069C4.41683 17.1353 3.4585 16.5063 2.6499 15.7202C1.8488 14.9266 1.20866 13.9907 0.729492 12.9126C0.250326 11.827 0.0107422 10.6927 0.0107422 9.50977C0.0107422 7.90007 0.415039 6.42139 1.22363 5.07373C2.03223 3.72607 3.13281 2.66292 4.52539 1.88428C5.92546 1.09814 7.45654 0.705078 9.11865 0.705078ZM8.9165 2.26611C7.64372 2.26611 6.45329 2.59554 5.34521 3.25439C4.24463 3.91325 3.36865 4.80046 2.71729 5.91602C2.06592 7.03158 1.74023 8.22949 1.74023 9.50977C1.74023 10.805 2.06592 12.0104 2.71729 13.126C3.37614 14.234 4.26335 15.1138 5.37891 15.7651C6.49447 16.409 7.70361 16.731 9.00635 16.731C9.97965 16.731 10.9118 16.54 11.8027 16.1582C12.6937 15.7689 13.4648 15.2523 14.1162 14.6084C14.7676 13.9645 15.2842 13.2008 15.666 12.3174C16.0553 11.4264 16.25 10.498 16.25 9.53223C16.25 8.54395 16.0553 7.60059 15.666 6.70215C15.2842 5.80371 14.7638 5.03255 14.105 4.38867C13.4536 3.7373 12.675 3.2207 11.769 2.83887C10.8631 2.45703 9.91227 2.26611 8.9165 2.26611ZM31.921 18C31.921 18 31.322 18 30.1241 18C30.1241 18 28.608 14.4512 25.5758 7.35352C25.5758 7.35352 24.0484 10.9023 20.9937 18C20.9937 18 20.3948 18 19.1969 18C19.1969 18 21.0012 13.8073 24.61 5.42188C24.61 5.42188 25.2464 5.42188 26.5191 5.42188C26.5191 5.42188 28.3198 9.61458 31.921 18ZM36.3503 11.9917C36.3503 11.9917 36.3503 13.4816 36.3503 16.4614C36.3503 16.4614 37.4359 16.4614 39.6071 16.4614C41.6361 16.4614 42.6506 15.7165 42.6506 14.2266C42.6506 12.7367 41.6361 11.9917 39.6071 11.9917H36.3503ZM40.0451 10.4531C41.3479 10.4531 42.3923 10.8088 43.1784 11.52C43.972 12.2238 44.3688 13.126 44.3688 14.2266C44.3688 15.3271 43.972 16.2331 43.1784 16.9443C42.3923 17.6481 41.3479 18 40.0451 18H34.6433V5.42188H36.3503V10.4531H40.0451ZM53.9305 5.42188C53.9305 5.42188 53.9305 5.93473 53.9305 6.96045C53.9305 6.96045 52.3545 6.96045 49.2024 6.96045C49.2024 6.96045 49.2024 10.6403 49.2024 18C49.2024 18 48.6334 18 47.4954 18C47.4954 18 47.4954 13.8073 47.4954 5.42188C47.4954 5.42188 49.6404 5.42188 53.9305 5.42188ZM68.849 5.42188C68.849 5.42188 68.849 9.61458 68.849 18C68.849 18 68.28 18 67.142 18C67.142 18 67.142 17.2625 67.142 15.7876C66.4756 16.686 65.7681 17.3299 65.0194 17.7192C64.2782 18.1086 63.376 18.3032 62.3129 18.3032C61.0326 18.3032 59.8759 18.0225 58.8427 17.4609C57.817 16.8919 57.0121 16.1095 56.4281 15.1138C55.8441 14.1105 55.5521 12.9875 55.5521 11.7446C55.5521 10.5018 55.8404 9.375 56.4169 8.36426C56.9934 7.35352 57.787 6.5599 58.7978 5.9834C59.8085 5.4069 60.9353 5.11865 62.1781 5.11865C63.2787 5.11865 64.2221 5.3208 65.0082 5.7251C65.8018 6.12191 66.5131 6.76204 67.142 7.64551V5.42188H68.849ZM62.1557 6.67969C60.808 6.67969 59.6588 7.16634 58.7079 8.13965C57.7571 9.11296 57.2816 10.2922 57.2816 11.6772C57.2816 13.0923 57.7683 14.2902 58.7416 15.271C59.7149 16.2443 60.8979 16.731 62.2904 16.731C63.6605 16.731 64.8098 16.248 65.7382 15.2822C66.6741 14.3089 67.142 13.1073 67.142 11.6772C67.142 10.2472 66.6666 9.0568 65.7157 8.10596C64.7649 7.15511 63.5782 6.67969 62.1557 6.67969ZM93.8907 18C93.8907 18 91.7532 12.98 87.4781 2.93994C87.4781 2.93994 85.3369 7.95996 81.0543 18C81.0543 18 80.4441 18 79.2237 18C79.2237 18 81.6607 12.3361 86.5348 1.0083C86.5348 1.0083 87.1637 1.0083 88.4215 1.0083C88.4215 1.0083 90.8585 6.6722 95.7325 18C95.7325 18 95.1186 18 93.8907 18ZM110.718 12.2725C110.718 12.2725 106.926 12.2725 99.342 12.2725C99.4094 13.5153 99.9185 14.571 100.869 15.4395C101.82 16.3005 102.943 16.731 104.238 16.731C105.197 16.731 106.08 16.4689 106.889 15.9448C107.697 15.4132 108.278 14.717 108.63 13.856H110.404C109.94 15.1812 109.146 16.2555 108.023 17.0791C106.9 17.8952 105.654 18.3032 104.283 18.3032C103.37 18.3032 102.502 18.131 101.678 17.7866C100.854 17.4422 100.147 16.9743 99.5554 16.3828C98.9639 15.7913 98.496 15.0838 98.1516 14.2603C97.8072 13.4367 97.635 12.5682 97.635 11.6548C97.635 10.4569 97.9232 9.35628 98.4997 8.35303C99.0762 7.34977 99.8623 6.5599 100.858 5.9834C101.854 5.4069 102.951 5.11865 104.149 5.11865C105.391 5.11865 106.533 5.42562 107.574 6.03955C108.622 6.65348 109.419 7.48828 109.966 8.54395C110.243 9.07552 110.438 9.62207 110.55 10.1836C110.662 10.7376 110.718 11.4339 110.718 12.2725ZM99.3869 10.7339H109.023C108.738 9.48356 108.158 8.49528 107.282 7.76904C106.413 7.04281 105.369 6.67969 104.149 6.67969C102.958 6.67969 101.925 7.05404 101.049 7.80273C100.173 8.54395 99.619 9.521 99.3869 10.7339ZM125.177 18C125.177 18 124.608 18 123.47 18C123.47 18 123.47 16.1208 123.47 12.3623C123.47 12.3623 120.958 12.3623 115.934 12.3623C115.934 12.3623 115.934 14.2415 115.934 18C115.934 18 115.365 18 114.227 18C114.227 18 114.227 13.8073 114.227 5.42188C114.227 5.42188 114.796 5.42188 115.934 5.42188C115.934 5.42188 115.934 7.22249 115.934 10.8237C115.934 10.8237 118.446 10.8237 123.47 10.8237C123.47 10.8237 123.47 9.02311 123.47 5.42188C123.47 5.42188 124.039 5.42188 125.177 5.42188C125.177 5.42188 125.177 9.61458 125.177 18ZM141.813 12.2725C141.813 12.2725 138.021 12.2725 130.437 12.2725C130.504 13.5153 131.013 14.571 131.964 15.4395C132.915 16.3005 134.038 16.731 135.333 16.731C136.292 16.731 137.175 16.4689 137.984 15.9448C138.792 15.4132 139.373 14.717 139.725 13.856H141.499C141.035 15.1812 140.241 16.2555 139.118 17.0791C137.995 17.8952 136.748 18.3032 135.378 18.3032C134.465 18.3032 133.596 18.131 132.773 17.7866C131.949 17.4422 131.242 16.9743 130.65 16.3828C130.059 15.7913 129.591 15.0838 129.246 14.2603C128.902 13.4367 128.73 12.5682 128.73 11.6548C128.73 10.4569 129.018 9.35628 129.595 8.35303C130.171 7.34977 130.957 6.5599 131.953 5.9834C132.949 5.4069 134.046 5.11865 135.244 5.11865C136.486 5.11865 137.628 5.42562 138.669 6.03955C139.717 6.65348 140.514 7.48828 141.061 8.54395C141.338 9.07552 141.533 9.62207 141.645 10.1836C141.757 10.7376 141.813 11.4339 141.813 12.2725ZM130.482 10.7339H140.118C139.833 9.48356 139.253 8.49528 138.377 7.76904C137.508 7.04281 136.464 6.67969 135.244 6.67969C134.053 6.67969 133.02 7.05404 132.144 7.80273C131.268 8.54395 130.714 9.521 130.482 10.7339ZM132.807 0.772461H134.502V3.66992H132.807V0.772461ZM136.187 0.772461H137.883V3.66992H136.187V0.772461ZM147.029 12.1602C147.029 12.1602 147.029 13.5939 147.029 16.4614C147.029 16.4614 148.107 16.4614 150.263 16.4614C150.922 16.4614 151.495 16.3903 151.981 16.248C152.468 16.1058 152.861 15.8662 153.161 15.5293C153.468 15.1924 153.621 14.7656 153.621 14.249C153.621 12.8564 152.502 12.1602 150.263 12.1602H147.029ZM154.71 8.73486C154.71 9.34131 154.527 9.8654 154.16 10.3071C153.801 10.7489 153.415 11.0596 153.003 11.2393C154.568 11.8083 155.351 12.8115 155.351 14.249C155.351 15.3271 154.916 16.2218 154.048 16.9331C153.187 17.6444 152.071 18 150.701 18H145.322V5.42188H150.364C151.712 5.42188 152.771 5.71387 153.542 6.29785C154.321 6.87435 154.71 7.68669 154.71 8.73486ZM153.071 8.73486C153.071 7.55192 152.075 6.96045 150.083 6.96045H147.029C147.029 6.96045 147.029 8.18083 147.029 10.6216C147.029 10.6216 148.047 10.6216 150.083 10.6216C151.004 10.6216 151.731 10.4644 152.262 10.1499C152.801 9.83545 153.071 9.36377 153.071 8.73486ZM171.594 5.42188C171.594 5.42188 171.594 9.61458 171.594 18C171.594 18 171.025 18 169.887 18C169.887 18 169.887 17.2625 169.887 15.7876C169.221 16.686 168.513 17.3299 167.765 17.7192C167.024 18.1086 166.121 18.3032 165.058 18.3032C163.778 18.3032 162.621 18.0225 161.588 17.4609C160.562 16.8919 159.757 16.1095 159.173 15.1138C158.589 14.1105 158.297 12.9875 158.297 11.7446C158.297 10.5018 158.586 9.375 159.162 8.36426C159.739 7.35352 160.532 6.5599 161.543 5.9834C162.554 5.4069 163.681 5.11865 164.923 5.11865C166.024 5.11865 166.967 5.3208 167.754 5.7251C168.547 6.12191 169.258 6.76204 169.887 7.64551V5.42188H171.594ZM164.901 6.67969C163.553 6.67969 162.404 7.16634 161.453 8.13965C160.502 9.11296 160.027 10.2922 160.027 11.6772C160.027 13.0923 160.514 14.2902 161.487 15.271C162.46 16.2443 163.643 16.731 165.036 16.731C166.406 16.731 167.555 16.248 168.483 15.2822C169.419 14.3089 169.887 13.1073 169.887 11.6772C169.887 10.2472 169.412 9.0568 168.461 8.10596C167.51 7.15511 166.323 6.67969 164.901 6.67969Z" fill="#262626"/>
</svg>
