<svg width="45" height="45" viewBox="0 0 45 45" fill="none" xmlns="http://www.w3.org/2000/svg">
<g clip-path="url(#clip0_72_87)">
<circle cx="22.5" cy="22.5" r="22.5" fill="#C2C2C2"/>
<path d="M32.0882 28.5127L28.5329 26.3403C27.8887 25.9466 27.5267 25.7814 26.9303 26.0908C26.334 26.4012 25.7605 27.3497 24.722 27.3497C23.6835 27.3497 22.1824 26.4273 20.3777 24.6221C18.573 22.8174 17.6501 21.3163 17.6501 20.2783C17.6501 19.2393 18.5991 18.6658 18.909 18.0695C19.2184 17.4731 19.0527 17.1111 18.6595 16.4669L16.4871 12.9111C16.0934 12.2674 15.7507 12.083 15.2866 12.083C14.8449 12.083 14.2835 12.3747 13.5975 12.8684C12.9116 13.3627 12.084 14.3356 12.084 15.6169C12.084 16.8981 12.4444 21.6814 17.8814 27.1179C23.3184 32.5544 28.1012 32.9158 29.3824 32.9158C30.6637 32.9158 31.6366 32.0882 32.1309 31.4023C32.6246 30.7163 32.9163 30.1549 32.9163 29.7132C32.9163 29.2492 32.7324 28.9064 32.0882 28.5127Z" fill="white"/>
</g>
<defs>
<clipPath id="clip0_72_87">
<rect width="45" height="45" fill="white"/>
</clipPath>
</defs>
</svg>
