<svg width="60" height="60" viewBox="0 0 60 60" fill="none" xmlns="http://www.w3.org/2000/svg">
<g clip-path="url(#clip0_44_394)">
<circle cx="30" cy="30" r="30" fill="#039BE5"/>
<path d="M44.9791 32.0371C45.0625 31.3581 45.1117 30.6693 45.1117 29.9731C45.1117 21.1189 38.1697 13.9438 29.6022 13.9438C28.394 13.9438 27.2227 14.0859 26.0981 14.358C24.777 13.5001 23.1882 13 21.4988 13C16.8037 13 13 16.7996 13 21.4841C13 23.2736 13.5574 24.9454 14.5102 26.3108C14.245 27.4825 14.1026 28.7107 14.1026 29.9731C14.1026 38.8249 21.0445 46 29.6022 46C31.3972 46 33.1161 45.6887 34.7123 45.1053C35.8566 45.6813 37.1384 46 38.5012 46C43.1938 46 47 42.2004 47 37.5159C46.9975 35.4323 46.2412 33.5079 44.9791 32.0371ZM38.818 34.3291C38.7812 35.1773 39.2821 41.014 30.8766 41.2763C30.6507 41.2861 30.415 41.2861 30.1694 41.2861C21.0371 41.2468 20.9512 35.697 22.0758 34.4419C23.2103 33.1868 25.0594 34.263 25.8157 35.0547C26.5597 35.8367 27.6009 37.1384 30.0098 37.185C30.0663 37.1948 30.113 37.1948 30.1694 37.1948C32.679 37.1948 34.1156 36.9227 34.0419 34.2826C34.0026 33.0005 33.1456 32.5274 31.8491 32.2381C30.9601 32.0396 29.8649 31.9268 28.6838 31.6915C26.4173 31.238 24.8678 30.4928 23.7997 29.6544C21.457 27.8355 21.4767 25.5803 21.5037 24.9871C21.5528 24.1389 21.4963 18.1503 29.2019 17.9149C29.3542 17.9076 29.5236 17.9076 29.6832 17.9076C38.8155 17.9076 38.3269 24.3546 37.2783 24.9307C35.5005 25.9014 34.727 25.1096 33.7178 23.7418C33.0842 22.8936 32.2714 22.0626 29.9779 22.0062C29.892 21.9964 29.7864 21.9964 29.6931 21.9964C27.1712 21.9964 25.6512 23.1363 25.8108 24.9086C25.9139 25.975 26.879 26.5216 28.0576 26.8599C29.0693 27.1614 30.2406 27.3036 31.1664 27.4997C33.3371 27.9704 34.8964 28.6494 36.0113 29.3946C38.8745 31.3115 38.8548 33.7065 38.818 34.3291Z" fill="white"/>
</g>
<defs>
<clipPath id="clip0_44_394">
<rect width="60" height="60" fill="white"/>
</clipPath>
</defs>
</svg>
